<svg preserveAspectRatio="none" overflow="visible" style="display: block;" width="662.266" height="135.939" viewBox="0 0 662.266 135.939" fill="none" xmlns="http://www.w3.org/2000/svg">
<g id="Group 1">
<path id="Vector" d="M33.28 8.02815C41.0833 7.40907 50.793 7.62335 58.4145 9.01806C73.5265 11.7837 85.6851 23.2552 82.0617 39.6483C80.3702 47.3017 75.3685 50.9269 69.1147 54.8828C100.338 67.1384 97.7816 103.742 70.0992 117.869C66.9539 119.474 63.7431 120.333 60.3637 121.35C39.839 127.525 3.83251 122.519 0.24516 96.3353C-0.652 90.1822 0.934458 83.9252 4.65521 78.9413C8.23675 74.242 12.6848 71.9786 18.4403 71.2081C18.5524 62.5763 18.5864 53.9442 18.5429 45.3117C18.5357 40.4583 18.6526 35.3294 18.3162 30.6053C17.8007 26.9982 16.6801 25.5444 13.0761 25.2448C8.33061 24.8506 7.50471 18.1518 9.84785 15.1155C14.324 9.31521 26.6293 8.49441 33.28 8.02815Z" fill="#272727"/>
<path id="Vector_2" d="M36.6511 60.6941C49.6518 60.5573 61.4642 59.4774 69.1921 72.3143C72.7896 78.2905 73.35 87.0866 71.5697 93.7539C66.6867 112.043 47.0611 117.007 30.697 112.764C16.7754 109.01 3.26266 93.7664 18.2617 82.7001C18.331 84.1196 18.4194 85.5378 18.5275 86.9549C19.6658 100.872 43.3878 95.8936 41.3391 82.5704C40.6873 78.3333 38.7406 75.7863 35.4665 73.1834C35.4104 71.0507 35.0805 62.2732 35.9358 60.8422L36.6511 60.6941Z" fill="#FEFDF7"/>
<path id="Vector_3" d="M38.4998 17.5272C42.2322 16.9445 49.234 17.6682 52.8465 18.7562C66.8893 22.9855 69.5361 43.1631 55.9458 50.0928C50.3207 52.0846 41.7198 51.5259 35.5937 51.4601C35.2047 43.6857 35.8455 35.3834 35.4276 27.6155C35.2302 23.9527 32.7866 20.9493 29.9805 18.7178C32.8104 18.2529 35.6508 17.856 38.4998 17.5272Z" fill="#FEFDF7"/>
<path id="Vector_4" d="M606.8 44.3297C608.329 44.149 610.354 44.1018 611.897 44.2329C649.181 47.4084 645.718 113.059 607.51 110.823C602.148 110.51 596.888 107.926 593.442 103.77C593.157 110.376 593.204 119.777 593.388 126.334C593.86 129.472 595.43 132.012 591.825 134.198C588.858 135.997 584.543 136.064 581.223 135.403C578.779 134.916 578.093 134.085 576.815 132.087C577.26 126.198 577.026 118.26 577.012 112.256L576.999 82.1627C576.965 75.0431 576.972 67.9127 576.951 60.7938C577.332 57.0855 570.926 54.0597 572.921 50.8818C577.06 44.292 586.459 43.4651 592.079 48.1368C592.562 49.517 592.885 51.0336 593.228 52.4629C597.207 47.5296 600.704 45.795 606.8 44.3297Z" fill="#FC9908"/>
<path id="Vector_5" d="M603.969 54.8393C611.72 54.0012 615.92 57.0769 618.581 64.3842C622.251 74.4759 621.769 96.3817 609.705 100.504C595.858 102.363 593.16 90.7214 593.16 79.6242C593.164 70.051 592.987 58.4621 603.969 54.8393Z" fill="#FEFDF7"/>
<path id="Vector_6" d="M540.646 44.3335C541.696 44.2248 543.205 44.2642 544.279 44.3101C551.061 44.5872 557.456 47.5311 562.078 52.5007C574.202 65.7907 573.166 92.391 559.54 104.43C550.096 112.774 534.937 113.838 526.075 104.024C525.916 111.41 525.841 119.77 526.068 127.094C526.232 127.977 526.66 130.04 526.493 130.843C525.45 135.935 519.334 136.342 515.256 135.712C511.99 135.208 511.076 134.492 509.309 132.059C509.894 125.609 509.69 117.898 509.676 111.327L509.693 83.2998C509.693 75.861 509.846 66.949 509.448 59.5099C509.663 57.6696 505.412 53.9613 505.344 53.2213C504.698 46.3826 517.638 43.3004 522.198 46.0552C525.168 47.8503 525.637 50.0482 526.289 52.2572C530.333 47.0737 534.01 45.304 540.646 44.3335Z" fill="#FC9908"/>
<path id="Vector_7" d="M537.521 54.8301C545.198 54.4721 548.514 57.6181 551.209 64.8667C554.875 74.7374 554.148 96.6761 542.255 100.52C533.926 102.049 527.762 97.0055 526.627 88.6817C525.159 77.937 523.786 57.8429 537.521 54.8301Z" fill="#FEFDF7"/>
<path id="Vector_8" d="M273.404 43.9977C274.209 43.923 275.015 43.869 275.822 43.835C283.568 43.5165 291.221 44.9414 297.108 50.416C300.831 53.8635 303.026 58.6525 303.206 63.7223C303.691 77.6092 289.669 83.7192 277.964 85.084C273.483 85.6067 268.724 85.4341 264.188 85.5442L264.307 85.8345C269.714 98.8701 280.466 102.463 293.729 96.1415C295.668 95.2168 297.153 92.7904 299.541 91.7808C300.612 91.645 301.322 92.2807 302.221 92.8845C303.893 95.407 302.758 98.1431 301.094 100.297C296.244 106.382 290.019 109.539 282.406 110.582C249.979 115.041 235.317 78.4266 253.277 55.0392C258.293 48.5064 265.327 44.9818 273.404 43.9977Z" fill="#272727"/>
<path id="Vector_9" d="M276.718 52.4746C281.684 52.7055 285.391 55.0698 286.541 60.1212C287.351 63.8109 286.679 67.6711 284.669 70.87C281.952 75.1295 278.236 76.4112 273.567 77.4425C270.177 77.9292 266.468 77.7954 263.036 77.7526C262.784 67.1338 264.494 55.1343 276.718 52.4746Z" fill="#FEFDF7"/>
<path id="Vector_10" d="M409.685 19.2295C416.872 17.8758 431.144 19.981 436.343 25.2732C438.677 27.6537 439.873 30.6571 439.894 33.9576C439.941 38.0422 438.348 41.9751 435.463 44.8697C432.819 47.5339 429.224 49.0338 425.469 49.0362C422.642 49.0165 418.268 46.9521 418.316 43.7219C420.209 41.2976 424.898 43.1752 427.569 36.5321C425.391 30.6323 420.78 28.9955 414.925 28.5571C384.988 26.3154 378.81 71.2857 394.791 89.19C400.524 95.6117 405.199 97.1769 413.229 97.8147C418.472 97.7542 423.59 97.3084 427.875 94.2031C429.186 93.2526 431.854 91.5607 433.22 90.9824C437.923 91.793 436.662 98.4823 434.185 101.207C428.819 107.11 420.365 110.25 412.577 110.943C402.148 111.787 391.801 108.546 383.72 101.904C375.147 94.7682 370.199 83.8051 369.19 72.803C366.733 45.9799 381.365 21.6704 409.685 19.2295Z" fill="#FC9908"/>
<path id="Vector_11" d="M107.82 44.0091C119.39 44.1127 117.395 52.8199 117.341 61.3216C117.286 68.0791 117.268 74.837 117.286 81.5946C117.336 87.1656 117.109 93.0304 121.319 97.369C125.024 101.186 132.817 99.9876 136.076 96.2243C141.786 89.6304 140.55 78.4778 140.676 70.3612C140.66 65.9536 140.633 61.5654 140.341 57.165C140.116 53.7836 137.432 50.0804 140.429 47.1694C143.908 43.7897 152.377 42.4867 155.938 46.2766C158.476 48.9784 157.471 57.221 157.421 61.0248C157.344 67.5575 157.334 74.0909 157.391 80.624C157.373 84.3246 156.673 94.7304 158.409 98.0897C158.966 99.1672 161.628 99.1451 163.039 99.2898C164.848 100.544 164.778 102.749 163.708 104.518C160.48 109.858 151.65 112.674 146.037 109.675C142.618 107.848 141.656 104.993 140.599 101.532L140.499 101.668C136.67 106.857 132.337 109.824 125.861 110.784C120.408 111.593 113.452 110.667 109.01 107.2C100.347 100.647 100.439 89.9724 100.567 80.1792C100.564 75.0598 100.556 69.9218 100.619 64.8044C100.647 62.468 101.047 59.3197 100.099 57.1819C98.6189 53.8461 94.3519 52.0303 97.7164 48.019C100.074 45.2082 104.409 44.3243 107.82 44.0091Z" fill="#272727"/>
<path id="Vector_12" d="M446.513 45.285C447.301 45.2126 448.103 45.1444 448.891 45.1634C451.447 45.2238 454.529 45.9869 456.054 48.2085C461.209 55.7237 453.482 89.612 461.07 97.3853C462.708 99.0663 464.849 99.8423 467.18 99.8426C470.292 99.843 473.436 98.6449 475.631 96.409C477.948 94.0468 479.151 90.7633 479.807 87.5792C480.82 82.6592 480.857 63.354 480.334 58.1392C480.126 56.0626 478.546 54.3518 478.56 52.249C478.567 50.6974 479.27 49.2093 480.358 48.1202C482.373 46.0942 486.104 45.0795 488.887 45.1019C492.186 45.1281 494.527 46.4032 496.794 48.6914C497.266 56.9201 496.845 70.0936 496.845 78.6918C496.828 82.8236 496.07 95.8962 497.994 98.6123C499.72 100.031 501.317 98.434 502.992 100.703C504.365 108.259 491.401 113.069 485.747 109.786C482.559 107.934 481.557 105.533 480.5 102.216C476.851 105.646 474.207 108.228 469.307 109.878C464.006 111.665 456.748 111.421 451.79 108.702C440.603 102.567 441.151 90.9711 441.222 80.3079L441.273 65.7787C441.266 63.533 441.273 60.9015 441.072 58.6904C441.004 56.3221 437.222 55.2771 436.866 53.4338C435.836 48.1097 443.186 46.2059 446.513 45.285Z" fill="#FC9908"/>
<path id="Vector_13" d="M342.461 43.6419C350.844 42.9138 360.464 44.6743 361.059 55.3439C361.378 61.1017 356.186 65.2529 350.688 64.9897C346.087 64.7693 346.824 62.5545 346.943 58.892C344.248 55.1083 340.918 53.4724 336.789 56.6249C325.647 65.1392 328.668 84.155 328.454 96.4296C328.396 99.6663 329.446 103.032 329.028 106.264C328.831 107.724 326.938 108.823 325.78 109.578C322.569 110.45 318.82 111.121 315.561 110.073C314.022 109.579 312.298 108.441 311.721 106.867C310.78 104.299 311.606 98.0233 311.657 95.1643C311.744 90.3139 312.215 59.8052 311.114 57.716C311.086 57.664 311.057 57.6128 311.029 57.5605C310.031 55.6669 306.513 54.1071 306.273 52.1317C306.123 50.8959 306.987 49.3898 307.757 48.4604C309.981 45.7756 313.969 44.3231 317.354 44.0263C320.244 43.773 323.024 44.2729 325.287 46.1763C327.662 48.1775 327.832 50.8032 328.077 53.6881C332.362 47.8199 335.104 45.3511 342.461 43.6419Z" fill="#272727"/>
<path id="Vector_14" d="M184.523 28.3422C191.93 27.4395 190.618 33.199 190.685 38.352C190.71 40.1987 190.648 42.075 190.629 43.9224C193.341 43.941 201.446 43.3532 202.438 45.1238C207.496 54.1468 192.565 52.3202 190.641 52.3185L190.507 79.6245C190.493 84.3767 190.346 89.2516 190.702 93.9896C190.964 96.8564 192.063 99.3847 195.319 99.6166C197.885 99.7997 198.134 99.6737 199.98 98.0358C202.504 95.856 205.778 98.1068 205.137 101.189C204.507 104.216 201.422 107.064 199.056 108.754C193.037 112.171 183.626 112.091 178.553 106.995C172.612 101.028 173.962 89.437 173.953 81.5163L174.01 52.1249C170.623 52.149 161.73 53.4884 166.36 45.1004C167.077 43.8018 170.802 43.9492 172.44 43.8833C177.675 35.5042 171.019 31.8325 184.523 28.3422Z" fill="#272727"/>
<path id="Vector_15" d="M225.897 28.3166C233.839 27.0156 231.348 38.5224 231.331 43.9372C233.561 44.0187 243.002 43.4526 243.984 45.177C248.886 53.7823 235.826 52.1445 231.321 52.1818C231.087 60.1938 231.234 68.2599 231.283 76.621C231.315 81.9305 230.356 93.7518 232.968 98.3057C235.072 102.036 242.014 96.8027 243.465 97.4822C249.829 100.461 241.646 107.255 239.93 108.473C236.792 110.172 233.85 111.082 230.265 111.065C212.11 110.979 214.689 92.1234 214.722 79.838L214.643 52.1146C214.058 52.1292 212.74 52.1003 212.22 52.1594C207.13 52.7394 202.213 48.1495 208.487 44.7047C210.262 43.7297 211.856 43.909 213.913 43.9059C216.877 33.6839 214.499 31.2826 225.897 28.3166Z" fill="#272727"/>
<path id="Vector_16" d="M635.219 26.3161C632.365 24.7159 624.903 22.2308 624.057 20.3355C624.522 18.5201 632.283 16.056 634.961 14.1875C639.712 10.8694 640.248 0.937617 643.161 0C645.471 1.16073 647.092 9.99932 650.127 12.9976C654.395 17.2191 657.623 16.5148 662.085 19.5351C662.356 19.7198 662.248 20.1413 662.227 20.542C661.065 22.1242 654.316 24.8446 652.006 25.9945C646.419 31.0918 645.92 38.5554 643.154 40.1355C642.62 40.0615 642.165 40.0723 641.863 39.4658C639.562 34.8222 639.246 30.1155 635.219 26.3161Z" fill="#FC9908"/>
<path id="Vector_17" d="M635.219 26.3146C635.182 26.0039 635.318 25.8286 635.464 25.5454L636.099 25.4266L635.963 25.7638C639.249 23.9429 649.675 21.8401 652.006 25.993C646.419 31.0903 645.92 38.5539 643.154 40.134C642.62 40.06 642.165 40.0708 641.862 39.4643C639.562 34.8207 639.246 30.114 635.219 26.3146Z" fill="#FC9908"/>
</g>
</svg>
